<svg xmlns="http://www.w3.org/2000/svg" version="1.1" width="300" height="300" viewBox="-10 -150
200 150">
<rect x ="3" y ="0" width ="6" height="13" transform=" scale(5,-5) " />
<rect x ="1" y ="0" width ="4" height="11" transform=" scale(5,-5) " />
<rect x ="19" y ="0" width ="3" height="18" transform=" scale(5,-5) " />
<rect x ="3" y ="0" width ="4" height="6" transform=" scale(5,-5) " />
<rect x ="16" y ="0" width ="9" height="3" transform=" scale(5,-5) " />
<rect x ="12" y ="0" width ="4" height="7" transform=" scale(5,-5) " />
<polyline points=
"1,0 1,11 3,11 3,13 9,13 9,0 12 ,0 12,7 16,7 16,3 19,3 19,18 22,18 22,3 25,3 25,0 "
stroke="green" stroke-width="1" fill="none" transform=" scale(5,-5) " /></svg>